<svg xmlns="http://www.w3.org/2000/svg" version="1.1" xmlns:xlink="http://www.w3.org/1999/xlink" viewBox="0 0 8.637777826122653 3.3763616051871956"><g transform="matrix(0.7712920245521464,0,0,0.7712920245521464,1.373864753041551,1.2515044830290403)"><g transform="matrix(1,0,0,1,0,0)" clip-path="url(#SvgjsClipPath100646)"><g clip-path="url(#SvgjsClipPath10064464affbc6-c705-4d92-b49a-f25c7a37d819)"><path d=" M 6.844871767098597 -0.6214295502473541 C 6.632869523625189 -0.6214295502473541 6.46052657191572 -0.4490865985378854 6.46052657191572 -0.237084355064478 L 6.46052657191572 0.06706741927219861 L 7.228925349842031 0.06706741927219861 L 7.228925349842031 0.04082229972253326 C 7.225717613008183 0.05073712266351804 7.21638601494608 0.05802743364953611 7.205304742247333 0.05802743364953611 C 7.191598957593619 0.05802743364953611 7.18022607245543 0.04694616095078852 7.18022607245543 0.03294876385763368 C 7.18022607245543 0.019242979203919708 7.191307345154178 0.007870094065731359 7.205304742247333 0.007870094065731359 C 7.21638601494608 0.007870094065731359 7.225717613008183 0.015160405051749537 7.228925349842031 0.025075227992734206 L 7.228925349842031 -0.2373759675039187 C 7.229216962281472 -0.4490865985378854 7.056874010572003 -0.6214295502473541 6.844871767098597 -0.6214295502473541 Z M 6.486480079025945 0.05802743364953611 C 6.472774294372231 0.05802743364953611 6.461401409234043 0.04694616095078852 6.461401409234043 0.03294876385763368 C 6.461401409234043 0.019242979203919597 6.4724826819327905 0.007870094065731359 6.486480079025945 0.007870094065731359 C 6.500185863679659 0.007870094065731359 6.511558748817848 0.01895136676447884 6.511558748817848 0.03294876385763368 C 6.5112671363784065 0.04694616095078852 6.500185863679659 0.05802743364953611 6.486480079025945 0.05802743364953611 Z M 7.1805176848948715 0.018368141885597322 L 6.509225849302322 0.018368141885597322 L 6.509225849302322 -0.23737596750391882 C 6.509225849302322 -0.42254986654877946 6.659697868053736 -0.5730218853001937 6.844871767098597 -0.5730218853001937 C 7.030045666143457 -0.5730218853001937 7.1805176848948715 -0.42254986654877946 7.1805176848948715 -0.23737596750391882 L 7.1805176848948715 0.018368141885597322 Z" fill="#ea9611" transform="matrix(1,0,0,1,0,0)" fill-rule="nonzero"></path></g><g clip-path="url(#SvgjsClipPath10064464affbc6-c705-4d92-b49a-f25c7a37d819)"><path d=" M 7.634558253104081 1.4426032961140998 L 7.48554429654987 0.19041948115562535 C 7.470672062138393 0.06560935707499471 7.364816746621409 -0.02858146086435942 7.239131785222457 -0.02858146086435942 L 7.149023541435273 -0.02858146086435942 C 7.270625928682056 -0.02858146086435942 7.373273507365191 0.06240162024114693 7.387562516897786 0.18342078260904804 L 7.531910674420946 1.3953620809247027 C 7.550865482984593 1.5554573101776612 7.425763746464521 1.6965977308669717 7.2645020674538 1.6965977308669717 L 6.249982390639516 1.6965977308669717 C 6.188452165917523 1.6965977308669717 6.1321709651054634 1.6761848601061213 6.087262649431592 1.6417745922521159 C 6.137711601454837 1.7094286782023642 6.218196634740478 1.7537537689973541 6.310346165603747 1.7537537689973541 L 7.358109660514273 1.7537537689973541 C 7.524911975874367 1.7537537689973541 7.65409628654661 1.6082391617164322 7.634558253104081 1.4426032961140998 Z" fill="#ea9611" transform="matrix(1,0,0,1,0,0)" fill-rule="nonzero"></path></g><g clip-path="url(#SvgjsClipPath10064464affbc6-c705-4d92-b49a-f25c7a37d819)"><path d=" M 7.142988971935974 1.1974208060562481 C 7.190249445666721 1.2446812797869948 7.190249445666721 1.3213056317461869 7.142988971935974 1.368566105476934 C 7.0957284982052276 1.4158265792076803 7.019104146246035 1.4158265792076803 6.971843672515289 1.368566105476934 C 6.924583198784542 1.321305631746187 6.924583198784542 1.244681279786995 6.971843672515289 1.1974208060562481 C 7.019104146246035 1.1501603323255014 7.0957284982052276 1.1501603323255014 7.142988971935974 1.1974208060562481 Z" fill="#ffc55f" transform="matrix(1,0,0,1,0,0)" fill-rule="nonzero"></path></g><g clip-path="url(#SvgjsClipPath10064464affbc6-c705-4d92-b49a-f25c7a37d819)"><path d=" M 6.56084125108333 0.46103582495661843 C 6.494062002451404 0.46103582495661843 6.439822088715429 0.5152757386925935 6.439822088715429 0.5820549873245195 C 6.439822088715429 0.6488342359564456 6.494062002451404 0.7030741496924204 6.56084125108333 0.7030741496924204 C 6.627620499715256 0.7030741496924204 6.681860413451231 0.6488342359564456 6.681860413451231 0.5820549873245195 C 6.681860413451231 0.5152757386925935 6.627328887275815 0.46103582495661843 6.56084125108333 0.46103582495661843 Z M 6.56084125108333 0.46103582495661843 C 6.494062002451404 0.46103582495661843 6.439822088715429 0.5152757386925935 6.439822088715429 0.5820549873245195 C 6.439822088715429 0.6488342359564456 6.494062002451404 0.7030741496924204 6.56084125108333 0.7030741496924204 C 6.627620499715256 0.7030741496924204 6.681860413451231 0.6488342359564456 6.681860413451231 0.5820549873245195 C 6.681860413451231 0.5152757386925935 6.627328887275815 0.46103582495661843 6.56084125108333 0.46103582495661843 Z M 7.531619061981505 1.3953620809247027 L 7.3872709044583456 0.18342078260904804 C 7.386979292018905 0.18196272041184436 7.386979292018905 0.18050465821464068 7.386687679579464 0.179046596017437 C 7.386396067140023 0.1778801462596743 7.386396067140023 0.17671369650191127 7.3861044547005825 0.17554724674414846 C 7.385521229821701 0.17233950991030034 7.3849380049428195 0.16913177307645244 7.384354780063938 0.16592403624260454 C 7.384063167624498 0.16417436160596 7.3837715551850565 0.16242468696931578 7.383188330306176 0.1609666247721122 C 7.382896717866735 0.15921695013546766 7.382313492987853 0.1571756630593827 7.382021880548413 0.15542598842273847 C 7.38114704323009 0.1519266391494497 7.380272205911768 0.14842728987616116 7.379397368593446 0.14521955304231304 C 7.379397368593446 0.14492794060287228 7.379105756154005 0.14463632816343164 7.379105756154005 0.14463632816343164 C 7.378522531275124 0.1428866535267871 7.378230918835683 0.14113697889014287 7.377647693956802 0.1396789166929393 C 7.37706446907792 0.13822085449573573 7.37677285663848 0.13676279229853205 7.376189631759598 0.13559634254076924 C 7.375898019320157 0.13501311766188784 7.375606406880717 0.13413828034356556 7.375314794441276 0.13355505546468427 C 7.374148344683514 0.1300557061913955 7.372981894925751 0.12684796935754739 7.371523832728546 0.12334862008425884 C 7.370940607849665 0.12189055788705516 7.370357382970783 0.12043249568985159 7.369774158091902 0.11897443349264791 C 7.36919093321302 0.11722475885600359 7.3683160958946985 0.11547508421935926 7.367732871015817 0.11401702202215558 C 7.367732871015817 0.11401702202215558 7.367732871015817 0.11372540958271482 7.367441258576376 0.11372540958271482 C 7.366858033697495 0.11226734738551125 7.365983196379172 0.11051767274886692 7.365399971500291 0.10905961055166324 C 7.364816746621409 0.10760154835445968 7.363941909303088 0.106143486157256 7.363067071984766 0.10468542396005243 C 7.360442560029799 0.09972801248956009 7.357818048074832 0.09477060101906776 7.3549019236804245 0.08981318954857542 C 7.354027086362103 0.08835512735137174 7.353152249043781 0.08689706515416817 7.352277411725458 0.0854390029569646 C 7.351402574407136 0.08427255319920168 7.350819349528255 0.08281449100199811 7.349944512209933 0.08164804124423508 C 7.347611612694407 0.07814869197094643 7.345570325618322 0.07494095513709831 7.342945813663356 0.07144160586380977 C 7.342070976345033 0.0699835436666062 7.34090452658727 0.06881709390884316 7.340029689268948 0.06735903171163948 C 7.339154851950626 0.06619258195387667 7.3382800146323035 0.06502613219611364 7.337405177313982 0.06385968243835083 C 7.3368219524351 0.06298484512002867 7.336238727556219 0.06211000780170661 7.335363890237897 0.061526782922825096 C 7.335072277798456 0.06094355804394358 7.334780665359015 0.06065194560450282 7.334197440480134 0.060068720725621416 C 7.333614215601252 0.05919388340729925 7.33273937828293 0.05831904608897709 7.332156153404049 0.05773582121009557 C 7.331864540964608 0.057444208770654814 7.331864540964608 0.057152596331214056 7.331572928525167 0.0568609838917733 C 7.330698091206845 0.055986146573451245 7.330114866327964 0.05511130925512897 7.329240029009641 0.05423647193680692 C 7.327490354372997 0.05219518486072172 7.325449067296912 0.04986228534519588 7.323699392660268 0.047820998269110904 C 7.3228245553419455 0.04694616095078863 7.322241330463064 0.046071323632466576 7.321366493144742 0.04548809875358506 C 7.320200043386979 0.04432164899582214 7.318741981189776 0.04286358679861857 7.317575531432013 0.041697137040855536 C 7.315825856795368 0.03994746240421132 7.314076182158724 0.03819778776756699 7.312326507522079 0.036448113130922444 C 7.312326507522079 0.036448113130922444 7.312326507522079 0.036448113130922444 7.312326507522079 0.036448113130922444 C 7.311451670203757 0.03557327581260039 7.310285220445994 0.03469843849427812 7.3094103831276716 0.033531988736515195 C 7.30853554580935 0.03265715141819303 7.307369096051588 0.03178231409987098 7.3062026462938245 0.030907476781548704 C 7.304161359217739 0.029157802144904377 7.302120072141654 0.02740812750826005 7.300078785065569 0.02565845287161561 C 7.298912335307806 0.024783615553293448 7.297745885550043 0.023908778234971284 7.29687104823172 0.02303394091664912 C 7.295704598473958 0.022159103598326846 7.294829761155635 0.021284266280004793 7.293663311397872 0.02040942896168252 C 7.2916220243217875 0.01865975432503819 7.2892891248062615 0.017201692127834622 7.286956225290735 0.015452017491190184 C 7.285789775532973 0.01457718017286802 7.28462332577521 0.013993955293986615 7.283456876017447 0.013119117975664452 C 7.282290426259684 0.012244280657342177 7.281123976501921 0.011661055778460772 7.279957526744159 0.010786218460138497 C 7.278791076986396 0.009911381141816333 7.277624627228633 0.009328156262934928 7.27645817747087 0.008453318944612764 C 7.274125277955344 0.006995256747409084 7.271792378439818 0.005537194550205404 7.269459478924293 0.004079132353001835 C 7.2682930291665295 0.00349590747412043 7.267418191848208 0.0029126825952389135 7.266251742090445 0.002329457716357508 C 7.2659601296510035 0.00203784527691675 7.265376904772122 0.00203784527691675 7.265085292332682 0.0017462328374761027 C 7.264210455014359 0.0011630079585946973 7.263044005256597 0.0005797830797131809 7.262169167938275 -0.000003441799168224513 C 7.259836268422749 -0.0014615039963719045 7.2572117564677825 -0.0026279537541348263 7.254878856952256 -0.003794403511897748 C 7.253712407194493 -0.0043776283907791536 7.25254595743673 -0.004960853269660559 7.251379507678967 -0.005544078148542075 C 7.251379507678967 -0.005544078148542075 7.251087895239527 -0.005544078148542075 7.251087895239527 -0.005835690587982834 C 7.249921445481764 -0.006418915466864128 7.248754995724001 -0.007002140345745644 7.247296933526798 -0.00758536522462705 C 7.244672421571831 -0.008751814982389972 7.242339522056305 -0.009918264740152893 7.239715010101339 -0.010793102058475057 C 7.238840172783016 -0.011084714497915704 7.237965335464694 -0.01166793937679722 7.237090498146372 -0.011959551816237979 C 7.236507273267491 -0.012251164255678626 7.235924048388609 -0.012251164255678626 7.235632435949168 -0.012542776695119384 C 7.234465986191406 -0.01312600157400079 7.233299536433643 -0.013417614013441659 7.23213308667588 -0.014000838892323064 C 7.230966636918117 -0.01458406377120447 7.229508574720914 -0.014875676210645228 7.2283421249631505 -0.015458901089526633 C 7.226300837887065 -0.01604212596840804 7.224551163250421 -0.016916963286730313 7.222509876174335 -0.01750018816561172 C 7.222509876174335 -0.01750018816561172 7.222509876174335 -0.01750018816561172 7.222509876174335 -0.01750018816561172 C 7.220760201537692 -0.018083413044493124 7.2193021393404875 -0.01866663792337464 7.217552464703843 -0.018958250362815288 C 7.216677627385521 -0.019249862802256046 7.21609440250664 -0.019541475241696693 7.215219565188318 -0.019541475241696693 C 7.214053115430555 -0.01983308768113745 7.213178278112233 -0.02012470012057821 7.21201182835447 -0.020416312560018968 C 7.211136991036147 -0.020707924999459726 7.210262153717825 -0.020999537438900373 7.2093873163995035 -0.020999537438900373 C 7.205887967126214 -0.021874374757222537 7.202388617852925 -0.0227492120755447 7.198889268579637 -0.023624049393866864 C 7.198597656140196 -0.023624049393866864 7.1983060437007556 -0.023915661833307622 7.197722818821874 -0.023915661833307622 C 7.193931857109145 -0.024790499151629786 7.189849282956974 -0.025373724030511302 7.186058321244245 -0.025956948909392596 C 7.185766708804804 -0.025956948909392596 7.185475096365364 -0.025956948909392596 7.1848918714864825 -0.026248561348833355 C 7.183142196849838 -0.026540173788274113 7.181100909773752 -0.02683178622771476 7.1793512351371085 -0.02712339866715552 C 7.176726723182142 -0.027415011106596276 7.174102211227176 -0.027706623546037035 7.171477699272209 -0.027998235985477793 C 7.170311249514446 -0.027998235985477793 7.169144799756683 -0.02828984842491855 7.168269962438361 -0.02828984842491855 C 7.16768673755948 -0.02828984842491855 7.167395125120039 -0.02828984842491855 7.1671035126805975 -0.02828984842491855 C 7.165937062922835 -0.02828984842491855 7.164770613165072 -0.0285814608643592 7.16389577584675 -0.0285814608643592 C 7.163604163407309 -0.0285814608643592 7.163312550967868 -0.0285814608643592 7.163020938528428 -0.0285814608643592 C 7.161854488770665 -0.0285814608643592 7.160688039012902 -0.028873073303799957 7.159229976815698 -0.028873073303799957 C 7.1571886897396135 -0.028873073303799957 7.155439015102969 -0.029164685743240604 7.153689340466324 -0.029164685743240604 C 7.15164805339024 -0.029164685743240604 7.149898378753595 -0.029164685743240604 7.14785709167751 -0.029164685743240604 L 6.429615653335003 -0.029164685743240604 C 6.303930691936051 -0.029164685743240604 6.198075376419068 0.06502613219611364 6.18320314200759 0.18983625627674394 L 6.100676821645865 0.8838738621456705 C 6.107092295313561 0.9025370582698771 6.116132280936224 0.9197421921968796 6.128088390953294 0.9349060390477975 C 6.177954118097658 0.9984775508458754 6.260772050898823 1.0118917230601487 6.321427438302495 1.0118917230601487 C 6.464025921189009 1.0118917230601487 6.640451447050648 0.9401550629577304 6.79383959019647 0.8200107379081514 C 6.902902642547301 0.734568293152019 6.99126121169784 0.6322123269083242 7.045792737873256 0.5286899109068668 L 6.97084834093699 0.5001118918416756 C 6.960641905556565 0.4963209301289462 6.953351594570546 0.48757255694572454 6.95101869505502 0.4767828966864176 C 6.948977407978935 0.4662848488665514 6.952185144812783 0.45520357616780394 6.960058680677683 0.4476216527423451 L 7.113446823823505 0.30035737082477876 L 7.1805176848948715 0.2359110217083784 L 7.298912335307806 0.12218217032649548 C 7.3050361965360615 0.11634992153768087 7.312909732400961 0.11343379714327373 7.320783268265861 0.11343379714327373 C 7.32457422997859 0.11343379714327373 7.3283651916913195 0.11401702202215513 7.331864540964608 0.11547508421935881 C 7.343237426102796 0.11984927081096963 7.351110961967696 0.13034731863083582 7.352277411725459 0.14259504108734622 L 7.390187028852753 0.6109246188291511 C 7.391061866171075 0.621714279088458 7.386396067140024 0.6322123269083242 7.377647693956802 0.6386278005760202 C 7.372107057607428 0.6427103747281901 7.365399971500292 0.645043274243716 7.358692885393155 0.645043274243716 C 7.354901923680425 0.645043274243716 7.351110961967696 0.6444600493648345 7.347320000254967 0.6430019871676309 L 7.264210455014359 0.6120910685869143 C 7.190724120275297 0.747399240487411 7.072912694741244 0.882124187509026 6.930022599415288 0.9941033642542647 C 6.7235609922912545 1.155948268143867 6.486480079025945 1.2524719855987472 6.296057156071151 1.2524719855987472 C 6.201283113252916 1.2524719855987472 6.12254775460392 1.2288513780040486 6.065100104034096 1.183359837451295 L 6.034189185453379 1.4423116836746595 C 6.0254408122701575 1.5163812432926036 6.04643690790989 1.5866598411978183 6.087262649431592 1.6414829798126747 C 6.1321709651054634 1.6756016352272394 6.188452165917523 1.696306118427531 6.249982390639516 1.696306118427531 L 7.264210455014359 1.696306118427531 C 7.42547213402508 1.6965977308669717 7.550573870545152 1.555748922617102 7.531619061981505 1.3953620809247027 Z M 6.486480079025945 0.008161706505172006 C 6.500185863679659 0.008161706505172006 6.511558748817848 0.019242979203919597 6.511558748817848 0.033240376297074437 C 6.511558748817848 0.04694616095078852 6.5004774761191 0.058319046088976756 6.486480079025945 0.058319046088976756 C 6.472774294372231 0.058319046088976756 6.461401409234043 0.047237773390229054 6.461401409234043 0.033240376297074437 C 6.461401409234043 0.019242979203919597 6.472774294372231 0.008161706505172006 6.486480079025945 0.008161706505172006 Z M 6.56084125108333 0.8281758862124919 C 6.424949854303952 0.8281758862124919 6.3144287397559165 0.7176547716644572 6.3144287397559165 0.5817633748850788 C 6.3144287397559165 0.4458719781057008 6.424949854303952 0.33535086355766597 6.56084125108333 0.33535086355766597 C 6.696732647862708 0.33535086355766597 6.807253762410743 0.4458719781057008 6.807253762410743 0.5817633748850788 C 6.807253762410743 0.7176547716644572 6.696732647862708 0.8281758862124919 6.56084125108333 0.8281758862124919 Z M 7.205304742247333 0.05802743364953611 C 7.191598957593619 0.05802743364953611 7.18022607245543 0.04694616095078852 7.18022607245543 0.03294876385763368 C 7.18022607245543 0.019242979203919597 7.191307345154178 0.007870094065731359 7.205304742247333 0.007870094065731359 C 7.216386014946081 0.007870094065731359 7.225717613008184 0.015160405051749426 7.228925349842032 0.025075227992734095 L 7.228925349842032 0.04082229972253326 C 7.225717613008184 0.05102873510295858 7.216386014946081 0.05802743364953611 7.205304742247333 0.05802743364953611 Z M 7.057457235450885 1.5295038030674364 C 6.921565838671507 1.5295038030674364 6.811044724123472 1.418982688519402 6.811044724123472 1.2830912917400235 C 6.811044724123472 1.1471998949606454 6.921565838671507 1.0366787804126105 7.057457235450885 1.0366787804126105 C 7.193348632230263 1.0366787804126105 7.3038697467782985 1.1471998949606454 7.3038697467782985 1.2830912917400235 C 7.3038697467782985 1.418982688519402 7.193348632230263 1.5295038030674364 7.057457235450885 1.5295038030674364 Z M 6.56084125108333 0.46103582495661843 C 6.494062002451404 0.46103582495661843 6.439822088715429 0.5152757386925935 6.439822088715429 0.5820549873245195 C 6.439822088715429 0.6488342359564456 6.494062002451404 0.7030741496924204 6.56084125108333 0.7030741496924204 C 6.627620499715256 0.7030741496924204 6.681860413451231 0.6488342359564456 6.681860413451231 0.5820549873245195 C 6.681860413451231 0.5152757386925935 6.627328887275815 0.46103582495661843 6.56084125108333 0.46103582495661843 Z M 6.56084125108333 0.46103582495661843 C 6.494062002451404 0.46103582495661843 6.439822088715429 0.5152757386925935 6.439822088715429 0.5820549873245195 C 6.439822088715429 0.6488342359564456 6.494062002451404 0.7030741496924204 6.56084125108333 0.7030741496924204 C 6.627620499715256 0.7030741496924204 6.681860413451231 0.6488342359564456 6.681860413451231 0.5820549873245195 C 6.681860413451231 0.5152757386925935 6.627328887275815 0.46103582495661843 6.56084125108333 0.46103582495661843 Z M 6.56084125108333 0.46103582495661843 C 6.494062002451404 0.46103582495661843 6.439822088715429 0.5152757386925935 6.439822088715429 0.5820549873245195 C 6.439822088715429 0.6488342359564456 6.494062002451404 0.7030741496924204 6.56084125108333 0.7030741496924204 C 6.627620499715256 0.7030741496924204 6.681860413451231 0.6488342359564456 6.681860413451231 0.5820549873245195 C 6.681860413451231 0.5152757386925935 6.627328887275815 0.46103582495661843 6.56084125108333 0.46103582495661843 Z" fill="#ffc55f" transform="matrix(1,0,0,1,0,0)" fill-rule="nonzero"></path></g><g clip-path="url(#SvgjsClipPath10064464affbc6-c705-4d92-b49a-f25c7a37d819)"><path d=" M 7.32078326826586 0.14580277792119456 L 7.262169167938274 0.20208397873325457 L 7.202388617852925 0.2595316293030774 L 7.135317756781559 0.32397797841947773 L 7.1271526084772185 0.3318515142843773 L 6.981929613635737 0.4712422603370441 L 7.089534603789365 0.5120680018587456 C 7.0370443646900345 0.6257968532406284 6.941687096992917 0.7450663409718852 6.813377623638997 0.8456726325789352 C 6.54101160520136 1.0591329382495465 6.222862433771529 1.108123828075588 6.1033013336008315 0.9550272973692073 C 6.046728520349331 0.8827074123879075 6.0443956208338045 0.7786017715075684 6.086387812113269 0.6660393698834484 C 5.984031845869575 0.8421732833056466 5.961869300472079 1.0130581728179118 6.045853683031009 1.120079938092658 C 6.18699410372032 1.3002964256670262 6.573963810858162 1.2329339521562188 6.91048456597276 0.9693163069018031 C 7.063872709118581 0.8491719818522241 7.1805176848948715 0.7086147860417944 7.248171770845119 0.5747646763385015 C 7.248463383284561 0.57418145145962 7.248754995724001 0.5733066141412977 7.2493382206028825 0.5727233892624164 L 7.270917541121496 0.5808885375667567 L 7.358984497832595 0.6144239681024402 L 7.32078326826586 0.14580277792119456 Z" fill="#ffffff" transform="matrix(1,0,0,1,0,0)" fill-rule="nonzero"></path></g><g clip-path="url(#SvgjsClipPath10064464affbc6-c705-4d92-b49a-f25c7a37d819)"><path d=" M 7.358692885393154 0.6141323556629994 L 7.33653033999566 0.6056755949192183 L 7.270625928682055 0.5805969251273158 L 7.249046608163441 0.5724317768229754 C 7.248754995724001 0.5730150017018569 7.248463383284561 0.5738898390201792 7.247880158405678 0.5744730638990607 C 7.18022607245543 0.7086147860417944 7.06358109667914 0.8488803694127829 6.910192953533318 0.9693163069018031 C 6.573963810858163 1.2329339521562186 6.18699410372032 1.3002964256670262 6.045853683031009 1.120079938092658 C 5.96186930047208 1.0127665603784712 5.984031845869575 0.8421732833056468 6.086387812113269 0.6660393698834486 C 6.044395620833805 0.7786017715075688 6.046728520349331 0.8827074123879075 6.1033013336008315 0.9550272973692073 C 6.222862433771529 1.1078322156361473 6.54071999276192 1.0588413258101057 6.813377623638998 0.8453810201394945 C 6.941687096992917 0.7447747285324444 7.0370443646900345 0.6257968532406284 7.089534603789365 0.5120680018587453 L 6.981929613635737 0.47124226033704386 L 7.1271526084772185 0.3318515142843771 L 7.135317756781559 0.3239779784194776 L 7.202388617852925 0.25953162930307716 L 7.262169167938275 0.20208397873325423 L 7.305327808975502 0.16067501233267145 L 7.32078326826586 0.14580277792119423 L 7.358692885393154 0.6141323556629994 Z" fill="#00394f" transform="matrix(1,0,0,1,0,0)" fill-rule="nonzero"></path></g><g clip-path="url(#SvgjsClipPath10064464affbc6-c705-4d92-b49a-f25c7a37d819)"><path d=" M 7.358692885393154 0.6150071929813214 L 7.270625928682056 0.581471762445638 L 7.249046608163441 0.5733066141412977 C 7.248754995724001 0.5738898390201792 7.248463383284561 0.5747646763385015 7.247880158405679 0.5753479012173828 C 7.180226072455431 0.7094896233601165 7.06358109667914 0.8497552067311056 6.910192953533319 0.970191144220125 C 6.573963810858163 1.2335171770350999 6.18699410372032 1.301171262985348 6.0455620705915685 1.12095477541098 C 6.0076524534642735 1.0725471104638196 5.991322156855593 1.0113084981812672 5.99423828125 0.9424879624732558 C 5.997154405644408 0.9987691632853164 6.013776314692529 1.0492181153085616 6.045853683031009 1.090335469269704 C 6.18699410372032 1.2705519568440722 6.573963810858162 1.2031894833332648 6.91048456597276 0.9395718380788487 C 7.063872709118581 0.8194275130292703 7.18022607245543 0.6791619296582811 7.248171770845119 0.5450202075155475 C 7.248463383284561 0.544436982636666 7.248754995724001 0.5435621453183439 7.2493382206028825 0.5429789204394624 L 7.270917541121496 0.5511440687438027 L 7.356359985877629 0.5835130495217233 L 7.358692885393154 0.6150071929813214 Z" fill="#096b89" transform="matrix(1,0,0,1,0,0)" fill-rule="nonzero"></path></g><g clip-path="url(#SvgjsClipPath10064464affbc6-c705-4d92-b49a-f25c7a37d819)"><path d=" M 7.057457235450885 1.0608826128861908 C 6.934688398446339 1.0608826128861908 6.835248556597053 1.160322454735478 6.835248556597053 1.2830912917400235 C 6.835248556597053 1.4058601287445691 6.93468839844634 1.5052999705938566 7.057457235450885 1.5052999705938566 C 7.180226072455431 1.5052999705938566 7.279665914304718 1.4058601287445691 7.279665914304718 1.2830912917400235 C 7.2793743018652775 1.160322454735478 7.17993446001599 1.0608826128861908 7.057457235450885 1.0608826128861908 Z M 7.057457235450885 1.4283142865815044 C 6.977263814604686 1.4283142865815044 6.912234240609404 1.363284712586223 6.912234240609404 1.2830912917400235 C 6.912234240609404 1.202897870893824 6.977263814604686 1.1378682968985425 7.057457235450885 1.1378682968985425 C 7.137650656297085 1.1378682968985425 7.2026802302923665 1.202897870893824 7.2026802302923665 1.2830912917400235 C 7.2026802302923665 1.363284712586223 7.137650656297085 1.4283142865815044 7.057457235450885 1.4283142865815044 Z" fill="#00394f" transform="matrix(1,0,0,1,0,0)" fill-rule="nonzero"></path></g><g clip-path="url(#SvgjsClipPath10064464affbc6-c705-4d92-b49a-f25c7a37d819)"><path d=" M 6.56084125108333 0.35984630847068677 C 6.438072414078785 0.35984630847068677 6.338632572229497 0.45928615031997433 6.338632572229497 0.5820549873245195 C 6.338632572229497 0.704823824329065 6.438072414078785 0.8042636661783522 6.56084125108333 0.8042636661783522 C 6.6836100880878755 0.8042636661783522 6.783049929937163 0.704823824329065 6.783049929937163 0.5820549873245195 C 6.783049929937163 0.45928615031997433 6.683318475648434 0.35984630847068677 6.56084125108333 0.35984630847068677 Z M 6.56084125108333 0.7272779821660007 C 6.48064783023713 0.7272779821660007 6.4156182562418484 0.662248408170719 6.4156182562418484 0.5820549873245195 C 6.4156182562418484 0.5018615664783201 6.48064783023713 0.43683199248303817 6.56084125108333 0.43683199248303817 C 6.641034671929529 0.43683199248303817 6.706064245924811 0.5018615664783201 6.706064245924811 0.5820549873245195 C 6.706064245924811 0.662248408170719 6.641034671929529 0.7272779821660007 6.56084125108333 0.7272779821660007 Z" fill="#00394f" transform="matrix(1,0,0,1,0,0)" fill-rule="nonzero"></path></g><g clip-path="url(#SvgjsClipPath10064464affbc6-c705-4d92-b49a-f25c7a37d819)"><path d=" M 7.1959731441852295 1.2393494258239146 C 7.177601560500464 1.1804437130568879 7.122486809446167 1.1375766844591015 7.057457235450885 1.1375766844591015 C 6.977263814604686 1.1375766844591015 6.912234240609404 1.2026062584543833 6.912234240609404 1.2827996793005827 C 6.912234240609404 1.2927145022415671 6.913109077927726 1.3023377127431115 6.915150365003811 1.3116693108052144 C 6.9107761784122 1.2979635261515001 6.908443278896675 1.283382904179464 6.908443278896675 1.2679274448891056 C 6.908443278896675 1.1877340240429062 6.973472852891956 1.1227044500476246 7.0536662737381555 1.1227044500476246 C 7.123944871643371 1.1229960624870654 7.182558971970956 1.1728617896314293 7.1959731441852295 1.2393494258239146 Z" fill="#096b89" transform="matrix(1,0,0,1,0,0)" fill-rule="nonzero"></path></g><g clip-path="url(#SvgjsClipPath10064464affbc6-c705-4d92-b49a-f25c7a37d819)"><path d=" M 7.270334316242614 1.2203946172602673 C 7.2738336655159035 1.2358500765506257 7.275583340152548 1.2518887607198657 7.275583340152548 1.2682190573285463 C 7.275583340152548 1.3909878943330918 7.176143498303261 1.4904277361823792 7.053374661298715 1.4904277361823792 C 6.952476757252224 1.4904277361823792 6.867325924935532 1.4230652626715716 6.840205968067544 1.3309157318083025 C 6.862076901025599 1.4306471860970305 6.95072708261558 1.5052999705938561 7.057165623011445 1.5052999705938561 C 7.17993446001599 1.5052999705938561 7.2793743018652775 1.4058601287445687 7.2793743018652775 1.2830912917400232 C 7.2793743018652775 1.2612203587819693 7.27616656503143 1.2402242631422369 7.270334316242614 1.2203946172602673 Z" fill="#096b89" transform="matrix(1,0,0,1,0,0)" fill-rule="nonzero"></path></g><g clip-path="url(#SvgjsClipPath10064464affbc6-c705-4d92-b49a-f25c7a37d819)"><path d=" M 6.778967355784992 0.5671827529130427 C 6.778967355784992 0.6899515899175881 6.679527513935705 0.7893914317668753 6.556758676931159 0.7893914317668753 C 6.455860772884669 0.7893914317668753 6.370709940567977 0.7220289582560679 6.34358998369999 0.6298794273927986 C 6.365460916658044 0.7296108816815265 6.454111098248024 0.8042636661783522 6.560549638643889 0.8042636661783522 C 6.683318475648434 0.8042636661783522 6.782758317497722 0.704823824329065 6.782758317497722 0.5820549873245198 C 6.782758317497722 0.5601840543664653 6.779550580663874 0.5391879587267332 6.77371833187506 0.5193583128447639 C 6.777217681148348 0.534813772135122 6.778967355784992 0.5505608438649212 6.778967355784992 0.5671827529130427 Z" fill="#096b89" transform="matrix(1,0,0,1,0,0)" fill-rule="nonzero"></path></g><g clip-path="url(#SvgjsClipPath10064464affbc6-c705-4d92-b49a-f25c7a37d819)"><path d=" M 6.699357159817675 0.5383131214084107 C 6.680985576132908 0.4794074086413842 6.625870825078612 0.43654038004359763 6.56084125108333 0.43654038004359763 C 6.48064783023713 0.43654038004359763 6.4156182562418484 0.5015699540388794 6.4156182562418484 0.5817633748850788 C 6.4156182562418484 0.5916781978260635 6.41649309356017 0.6013014083276076 6.418534380636256 0.6106330063897107 C 6.414160194044645 0.5969272217359967 6.411827294529119 0.5823465997639603 6.411827294529119 0.5671827529130427 C 6.411827294529119 0.48698933206684325 6.476856868524401 0.4219597580715613 6.557050289370601 0.4219597580715613 C 6.627328887275815 0.4216681456321205 6.685942987603401 0.4718254852159254 6.699357159817675 0.5383131214084107 Z" fill="#096b89" transform="matrix(1,0,0,1,0,0)" fill-rule="nonzero"></path></g><g clip-path="url(#SvgjsClipPath10064464affbc6-c705-4d92-b49a-f25c7a37d819)"><path d=" M 7.230383412039235 0.033240376297074437 C 7.230383412039235 0.03586488825204093 7.229800187160354 0.038781012646448176 7.229216962281472 0.04111391216197391 L 7.229216962281472 0.025366840432174742 C 7.230091799599794 0.027699739947700586 7.230383412039235 0.030324251902667076 7.230383412039235 0.033240376297074437 Z" fill="#ffffff" transform="matrix(1,0,0,1,0,0)" fill-rule="nonzero"></path></g><g clip-path="url(#SvgjsClipPath10064464affbc6-c705-4d92-b49a-f25c7a37d819)"><path d=" M 7.358692885393154 0.6141323556629994 L 7.33653033999566 0.6056755949192183 L 7.305619421414942 0.16067501233267145 L 7.32078326826586 0.14580277792119456 Z" fill="#096b89" transform="matrix(1,0,0,1,0,0)" fill-rule="nonzero"></path></g></g><g><path d=" M 0.75439453125 0.181640625 Q 0.75146484375 0.17431640625 0.7529296875 0.17138671875 Q 0.75439453125 0.16845703125 0.75439453125 0.15966796875 Q 0.73828125 0.15087890625 0.722900390625 0.1552734375 Q 0.70751953125 0.15966796875 0.69140625 0.1611328125 Q 0.67529296875 0.1611328125 0.654052734375 0.15673828125 Q 0.6328125 0.15234375 0.610107421875 0.14794921875 Q 0.58740234375 0.1435546875 0.56396484375 0.141357421875 Q 0.54052734375 0.13916015625 0.5185546875 0.1435546875 Q 0.5068359375 0.146484375 0.48486328125 0.157470703125 Q 0.462890625 0.16845703125 0.45263671875 0.17431640625 Q 0.4189453125 0.19482421875 0.404296875 0.234375 Q 0.3896484375 0.27392578125 0.3779296875 0.31494140625 Q 0.3720703125 0.32080078125 0.365478515625 0.3251953125 Q 0.35888671875 0.32958984375 0.35595703125 0.3369140625 Q 0.35595703125 0.34716796875 0.364013671875 0.35302734375 Q 0.3720703125 0.35888671875 0.375 0.36767578125 Q 0.3837890625 0.3896484375 0.39111328125 0.41162109375 Q 0.3984375 0.43359375 0.41015625 0.45263671875 Q 0.42919921875 0.48193359375 0.463623046875 0.49951171875 Q 0.498046875 0.51708984375 0.533203125 0.533203125 Q 0.55810546875 0.54638671875 0.576416015625 0.552978515625 Q 0.5947265625 0.5595703125 0.61962890625 0.5712890625 Q 0.63427734375 0.57861328125 0.64599609375 0.58154296875 Q 0.65771484375 0.58447265625 0.66796875 0.5888671875 Q 0.67822265625 0.59326171875 0.68701171875 0.599853515625 Q 0.69580078125 0.6064453125 0.7060546875 0.6181640625 Q 0.71484375 0.626953125 0.722900390625 0.6357421875 Q 0.73095703125 0.64453125 0.73828125 0.65185546875 Q 0.75439453125 0.66796875 0.760986328125 0.681884765625 Q 0.767578125 0.69580078125 0.7880859375 0.7060546875 Q 0.791015625 0.720703125 0.80126953125 0.730224609375 Q 0.8115234375 0.73974609375 0.814453125 0.75146484375 Q 0.8173828125 0.767578125 0.81005859375 0.779296875 Q 0.802734375 0.791015625 0.80419921875 0.8056640625 Q 0.8056640625 0.81884765625 0.813720703125 0.826904296875 Q 0.82177734375 0.8349609375 0.82470703125 0.8466796875 Q 0.82763671875 0.8583984375 0.82470703125 0.873046875 Q 0.82177734375 0.8876953125 0.81591796875 0.90234375 Q 0.80859375 0.92431640625 0.804931640625 0.94482421875 Q 0.80126953125 0.96533203125 0.79541015625 0.984375 Q 0.78955078125 1.00341796875 0.779296875 1.020263671875 Q 0.76904296875 1.037109375 0.74853515625 1.05029296875 Q 0.74267578125 1.05322265625 0.736083984375 1.055419921875 Q 0.7294921875 1.0576171875 0.7236328125 1.060546875 Q 0.71630859375 1.0634765625 0.7119140625 1.06787109375 Q 0.70751953125 1.072265625 0.703125 1.0751953125 Q 0.697265625 1.078125 0.690673828125 1.07958984375 Q 0.68408203125 1.0810546875 0.67822265625 1.083984375 Q 0.66943359375 1.08837890625 0.662109375 1.094970703125 Q 0.65478515625 1.1015625 0.64599609375 1.1044921875 Q 0.63134765625 1.11181640625 0.6240234375 1.124267578125 Q 0.61669921875 1.13671875 0.59765625 1.14404296875 Q 0.58154296875 1.1513671875 0.5712890625 1.1630859375 Q 0.56103515625 1.1748046875 0.5478515625 1.177734375 Q 0.52587890625 1.18212890625 0.50244140625 1.17626953125 Q 0.47900390625 1.17041015625 0.45556640625 1.17041015625 Q 0.43212890625 1.1689453125 0.4072265625 1.172607421875 Q 0.38232421875 1.17626953125 0.357421875 1.177734375 Q 0.3310546875 1.1806640625 0.301025390625 1.184326171875 Q 0.27099609375 1.18798828125 0.25048828125 1.18359375 Q 0.23291015625 1.1806640625 0.205078125 1.174072265625 Q 0.17724609375 1.16748046875 0.1494140625 1.159423828125 Q 0.12158203125 1.1513671875 0.097412109375 1.141845703125 Q 0.0732421875 1.13232421875 0.06298828125 1.1220703125 Q 0.0556640625 1.11474609375 0.050537109375 1.103759765625 Q 0.04541015625 1.0927734375 0.0380859375 1.08544921875 Q 0.02197265625 1.0693359375 0 1.053955078125 Q -0.02197265625 1.03857421875 -0.0322265625 1.02099609375 Q -0.03662109375 1.01220703125 -0.038818359375 1.002685546875 Q -0.041015625 0.9931640625 -0.0439453125 0.98291015625 Q -0.046875 0.97265625 -0.052734375 0.9638671875 Q -0.05859375 0.955078125 -0.06005859375 0.94775390625 Q -0.0615234375 0.93896484375 -0.05712890625 0.932373046875 Q -0.052734375 0.92578125 -0.05126953125 0.91845703125 Q -0.04833984375 0.90234375 -0.047607421875 0.88623046875 Q -0.046875 0.8701171875 -0.03515625 0.85693359375 Q -0.02197265625 0.85400390625 0.00146484375 0.84228515625 Q 0.02490234375 0.83056640625 0.046142578125 0.823974609375 Q 0.0673828125 0.8173828125 0.079833984375 0.8203125 Q 0.09228515625 0.8232421875 0.08203125 0.849609375 Q 0.0966796875 0.8583984375 0.1025390625 0.872314453125 Q 0.1083984375 0.88623046875 0.110595703125 0.901611328125 Q 0.11279296875 0.9169921875 0.114990234375 0.9345703125 Q 0.1171875 0.9521484375 0.12451171875 0.96826171875 Q 0.1318359375 0.98583984375 0.154541015625 0.99755859375 Q 0.17724609375 1.00927734375 0.18896484375 1.0224609375 Q 0.2109375 1.02099609375 0.22998046875 1.02685546875 Q 0.2490234375 1.03271484375 0.267333984375 1.039306640625 Q 0.28564453125 1.0458984375 0.305419921875 1.051025390625 Q 0.3251953125 1.05615234375 0.3486328125 1.05322265625 Q 0.357421875 1.0517578125 0.366943359375 1.037841796875 Q 0.37646484375 1.02392578125 0.38525390625 1.0224609375 Q 0.42333984375 1.013671875 0.45556640625 1.01220703125 Q 0.48779296875 1.0107421875 0.5126953125 0.98876953125 Q 0.53173828125 0.97265625 0.542724609375 0.9580078125 Q 0.5537109375 0.943359375 0.55517578125 0.9228515625 Q 0.556640625 0.8994140625 0.550048828125 0.885498046875 Q 0.54345703125 0.87158203125 0.53173828125 0.86279296875 Q 0.52001953125 0.85400390625 0.504638671875 0.8466796875 Q 0.4892578125 0.83935546875 0.474609375 0.82763671875 Q 0.4658203125 0.82177734375 0.457763671875 0.814453125 Q 0.44970703125 0.80712890625 0.4423828125 0.80419921875 Q 0.4130859375 0.791015625 0.378662109375 0.781494140625 Q 0.34423828125 0.77197265625 0.31494140625 0.7587890625 Q 0.30029296875 0.75146484375 0.2900390625 0.732421875 Q 0.27978515625 0.71337890625 0.263671875 0.71044921875 Q 0.25634765625 0.70751953125 0.24755859375 0.71044921875 Q 0.23876953125 0.71337890625 0.228515625 0.7119140625 Q 0.216796875 0.71044921875 0.197021484375 0.69873046875 Q 0.17724609375 0.68701171875 0.169921875 0.6796875 Q 0.16552734375 0.67529296875 0.16259765625 0.667236328125 Q 0.15966796875 0.6591796875 0.15380859375 0.6533203125 Q 0.1435546875 0.64013671875 0.1318359375 0.6298828125 Q 0.1201171875 0.61962890625 0.11572265625 0.60791015625 Q 0.11279296875 0.59912109375 0.112060546875 0.591796875 Q 0.111328125 0.58447265625 0.1083984375 0.5771484375 Q 0.10546875 0.5712890625 0.10107421875 0.56689453125 Q 0.0966796875 0.5625 0.09228515625 0.556640625 Q 0.08935546875 0.54931640625 0.08935546875 0.541259765625 Q 0.08935546875 0.533203125 0.08642578125 0.5244140625 Q 0.07763671875 0.498046875 0.06884765625 0.478271484375 Q 0.06005859375 0.45849609375 0.06298828125 0.42333984375 Q 0.064453125 0.39990234375 0.060791015625 0.38671875 Q 0.05712890625 0.37353515625 0.0615234375 0.357421875 Q 0.064453125 0.345703125 0.0673828125 0.336181640625 Q 0.0703125 0.32666015625 0.07470703125 0.31494140625 Q 0.07763671875 0.3046875 0.078369140625 0.29443359375 Q 0.0791015625 0.2841796875 0.08203125 0.27685546875 Q 0.08642578125 0.26953125 0.094482421875 0.2607421875 Q 0.1025390625 0.251953125 0.1083984375 0.2431640625 Q 0.12451171875 0.21826171875 0.140625 0.192626953125 Q 0.15673828125 0.1669921875 0.18310546875 0.1494140625 Q 0.19482421875 0.1259765625 0.2255859375 0.101806640625 Q 0.25634765625 0.07763671875 0.287109375 0.064453125 Q 0.32080078125 0.04833984375 0.36181640625 0.030029296875 Q 0.40283203125 0.01171875 0.43212890625 0.005859375 Q 0.4541015625 0.00146484375 0.474609375 0.00146484375 Q 0.4951171875 0.00146484375 0.5185546875 0.00146484375 Q 0.55517578125 0 0.57568359375 0.00146484375 Q 0.59619140625 0.0029296875 0.62548828125 0.00732421875 Q 0.63720703125 0.01025390625 0.651123046875 0.01171875 Q 0.6650390625 0.01318359375 0.67529296875 0.01611328125 Q 0.6826171875 0.01904296875 0.68701171875 0.022705078125 Q 0.69140625 0.0263671875 0.70166015625 0.02783203125 Q 0.7177734375 0.029296875 0.734619140625 0.024169921875 Q 0.75146484375 0.01904296875 0.767578125 0.0205078125 Q 0.796875 0.0234375 0.815185546875 0.03515625 Q 0.83349609375 0.046875 0.85693359375 0.06005859375 Q 0.8701171875 0.0673828125 0.88330078125 0.0732421875 Q 0.896484375 0.0791015625 0.90380859375 0.08642578125 Q 0.91259765625 0.09521484375 0.92138671875 0.111328125 Q 0.93017578125 0.12744140625 0.9375 0.145751953125 Q 0.94482421875 0.1640625 0.949951171875 0.18310546875 Q 0.955078125 0.2021484375 0.955078125 0.21533203125 Q 0.955078125 0.22265625 0.95361328125 0.228515625 Q 0.9521484375 0.234375 0.9521484375 0.24169921875 Q 0.95361328125 0.25341796875 0.9609375 0.26806640625 Q 0.96826171875 0.28271484375 0.96533203125 0.298828125 Q 0.9638671875 0.310546875 0.954345703125 0.317138671875 Q 0.94482421875 0.32373046875 0.9375 0.333984375 Q 0.931640625 0.3427734375 0.9287109375 0.353759765625 Q 0.92578125 0.36474609375 0.919921875 0.3720703125 Q 0.91259765625 0.38232421875 0.906005859375 0.3896484375 Q 0.8994140625 0.39697265625 0.896484375 0.4072265625 Q 0.8818359375 0.42333984375 0.851806640625 0.435791015625 Q 0.82177734375 0.4482421875 0.78515625 0.45556640625 Q 0.74853515625 0.462890625 0.711181640625 0.462890625 Q 0.673828125 0.462890625 0.64599609375 0.4541015625 Q 0.638671875 0.451171875 0.632080078125 0.4453125 Q 0.62548828125 0.439453125 0.61669921875 0.4365234375 Q 0.60791015625 0.43359375 0.598388671875 0.43212890625 Q 0.5888671875 0.4306640625 0.5830078125 0.42626953125 Q 0.57421875 0.42041015625 0.557373046875 0.399169921875 Q 0.54052734375 0.3779296875 0.53759765625 0.3662109375 Q 0.53173828125 0.35595703125 0.532470703125 0.343505859375 Q 0.533203125 0.3310546875 0.53466796875 0.31640625 Q 0.53759765625 0.30322265625 0.539794921875 0.283447265625 Q 0.5419921875 0.263671875 0.55078125 0.25634765625 Q 0.5537109375 0.25341796875 0.56396484375 0.2490234375 Q 0.57421875 0.24462890625 0.5859375 0.2490234375 Q 0.59765625 0.251953125 0.6064453125 0.26513671875 Q 0.615234375 0.2783203125 0.6240234375 0.293701171875 Q 0.6328125 0.30908203125 0.642333984375 0.322998046875 Q 0.65185546875 0.3369140625 0.66357421875 0.3427734375 Q 0.68115234375 0.35302734375 0.706787109375 0.353759765625 Q 0.732421875 0.3544921875 0.74853515625 0.34716796875 Q 0.7763671875 0.33837890625 0.790283203125 0.31787109375 Q 0.80419921875 0.29736328125 0.80419921875 0.2724609375 Q 0.80419921875 0.24755859375 0.791748046875 0.223388671875 Q 0.779296875 0.19921875 0.75439453125 0.181640625 M 1.921875 0.3251953125 Q 1.92333984375 0.375 1.910888671875 0.4130859375 Q 1.8984375 0.451171875 1.8779296875 0.48193359375 Q 1.8720703125 0.4892578125 1.86474609375 0.494384765625 Q 1.857421875 0.49951171875 1.8544921875 0.5068359375 Q 1.845703125 0.52294921875 1.843505859375 0.542724609375 Q 1.84130859375 0.5625 1.8369140625 0.58447265625 Q 1.833984375 0.603515625 1.831787109375 0.623291015625 Q 1.82958984375 0.64306640625 1.822265625 0.66064453125 Q 1.81787109375 0.67236328125 1.812744140625 0.678955078125 Q 1.8076171875 0.685546875 1.80322265625 0.693603515625 Q 1.798828125 0.70166015625 1.795166015625 0.711181640625 Q 1.79150390625 0.720703125 1.79150390625 0.73828125 Q 1.79150390625 0.744140625 1.793701171875 0.75146484375 Q 1.7958984375 0.7587890625 1.7958984375 0.76318359375 Q 1.79443359375 0.7998046875 1.777587890625 0.8408203125 Q 1.7607421875 0.8818359375 1.74609375 0.919921875 Q 1.74169921875 0.931640625 1.74169921875 0.944091796875 Q 1.74169921875 0.95654296875 1.73876953125 0.97265625 Q 1.7373046875 0.98583984375 1.732177734375 1.0048828125 Q 1.72705078125 1.02392578125 1.720458984375 1.043701171875 Q 1.7138671875 1.0634765625 1.70654296875 1.0810546875 Q 1.69921875 1.0986328125 1.69189453125 1.10595703125 Q 1.68603515625 1.11181640625 1.675048828125 1.11767578125 Q 1.6640625 1.12353515625 1.651611328125 1.12646484375 Q 1.63916015625 1.12939453125 1.62744140625 1.12939453125 Q 1.61572265625 1.12939453125 1.60693359375 1.12353515625 Q 1.59521484375 1.1279296875 1.58935546875 1.144775390625 Q 1.58349609375 1.16162109375 1.5673828125 1.17041015625 Q 1.55859375 1.1748046875 1.5380859375 1.178466796875 Q 1.517578125 1.18212890625 1.5087890625 1.17919921875 Q 1.5 1.17626953125 1.494140625 1.1689453125 Q 1.48828125 1.16162109375 1.48095703125 1.154296875 Q 1.48095703125 1.12939453125 1.484619140625 1.107421875 Q 1.48828125 1.08544921875 1.49853515625 1.07080078125 Q 1.494140625 1.0341796875 1.505859375 1.004150390625 Q 1.517578125 0.97412109375 1.53369140625 0.94921875 Q 1.52197265625 0.9375 1.5234375 0.917724609375 Q 1.52490234375 0.89794921875 1.53515625 0.88623046875 Q 1.53369140625 0.87158203125 1.5234375 0.86279296875 Q 1.51318359375 0.85400390625 1.497802734375 0.849609375 Q 1.482421875 0.84521484375 1.46484375 0.843017578125 Q 1.447265625 0.8408203125 1.4326171875 0.837890625 Q 1.40625 0.8349609375 1.39453125 0.835693359375 Q 1.3828125 0.83642578125 1.3623046875 0.837890625 Q 1.3388671875 0.837890625 1.317626953125 0.83642578125 Q 1.29638671875 0.8349609375 1.276611328125 0.834228515625 Q 1.2568359375 0.83349609375 1.238525390625 0.8349609375 Q 1.22021484375 0.83642578125 1.2041015625 0.84521484375 Q 1.20263671875 0.8583984375 1.19677734375 0.86865234375 Q 1.19091796875 0.87890625 1.184326171875 0.888427734375 Q 1.177734375 0.89794921875 1.172607421875 0.908935546875 Q 1.16748046875 0.919921875 1.166015625 0.93310546875 Q 1.166015625 0.9375 1.168212890625 0.943359375 Q 1.17041015625 0.94921875 1.1689453125 0.95361328125 Q 1.166015625 0.97412109375 1.146240234375 1.002685546875 Q 1.12646484375 1.03125 1.119140625 1.0634765625 Q 1.1162109375 1.07958984375 1.109619140625 1.095703125 Q 1.10302734375 1.11181640625 1.08984375 1.119140625 Q 1.08251953125 1.12353515625 1.07373046875 1.12353515625 Q 1.06494140625 1.12353515625 1.0576171875 1.12646484375 Q 1.0458984375 1.13232421875 1.040771484375 1.140380859375 Q 1.03564453125 1.1484375 1.02392578125 1.1513671875 Q 1.01953125 1.1513671875 1.008544921875 1.150634765625 Q 0.99755859375 1.14990234375 0.986572265625 1.14990234375 Q 0.9755859375 1.14990234375 0.966064453125 1.149169921875 Q 0.95654296875 1.1484375 0.95361328125 1.1455078125 Q 0.95068359375 1.13671875 0.952880859375 1.125 Q 0.955078125 1.11328125 0.9521484375 1.10302734375 Q 0.96240234375 1.083984375 0.9697265625 1.059814453125 Q 0.97705078125 1.03564453125 0.98291015625 1.011474609375 Q 0.98876953125 0.9873046875 0.99609375 0.964599609375 Q 1.00341796875 0.94189453125 1.013671875 0.9228515625 Q 1.013671875 0.90380859375 1.018798828125 0.886962890625 Q 1.02392578125 0.8701171875 1.030517578125 0.854736328125 Q 1.037109375 0.83935546875 1.04150390625 0.8232421875 Q 1.0458984375 0.80712890625 1.04443359375 0.78955078125 Q 1.04296875 0.7763671875 1.033447265625 0.76611328125 Q 1.02392578125 0.755859375 1.012939453125 0.744873046875 Q 1.001953125 0.73388671875 0.9931640625 0.72216796875 Q 0.984375 0.71044921875 0.98583984375 0.69580078125 Q 0.98876953125 0.68994140625 0.999755859375 0.685546875 Q 1.0107421875 0.68115234375 1.023193359375 0.67822265625 Q 1.03564453125 0.67529296875 1.048095703125 0.673828125 Q 1.060546875 0.67236328125 1.06787109375 0.6708984375 Q 1.0810546875 0.6533203125 1.083984375 0.63134765625 Q 1.0869140625 0.609375 1.08984375 0.58740234375 Q 1.0927734375 0.5712890625 1.097900390625 0.55810546875 Q 1.10302734375 0.544921875 1.10595703125 0.5244140625 Q 1.107421875 0.5126953125 1.112548828125 0.50244140625 Q 1.11767578125 0.4921875 1.12060546875 0.48046875 Q 1.125 0.46142578125 1.124267578125 0.444580078125 Q 1.12353515625 0.427734375 1.1337890625 0.41162109375 Q 1.154296875 0.39990234375 1.189453125 0.390380859375 Q 1.224609375 0.380859375 1.2509765625 0.380859375 Q 1.26123046875 0.380859375 1.2685546875 0.375 Q 1.27587890625 0.369140625 1.283203125 0.362548828125 Q 1.29052734375 0.35595703125 1.298583984375 0.3515625 Q 1.306640625 0.34716796875 1.3154296875 0.3486328125 Q 1.32275390625 0.35009765625 1.329345703125 0.359619140625 Q 1.3359375 0.369140625 1.3359375 0.37646484375 Q 1.33740234375 0.38818359375 1.32861328125 0.394775390625 Q 1.31982421875 0.4013671875 1.3154296875 0.41015625 Q 1.30810546875 0.42626953125 1.302978515625 0.451171875 Q 1.2978515625 0.47607421875 1.29052734375 0.49658203125 Q 1.28759765625 0.50244140625 1.283203125 0.507568359375 Q 1.27880859375 0.5126953125 1.27734375 0.51708984375 Q 1.27587890625 0.52880859375 1.281005859375 0.54345703125 Q 1.2861328125 0.55810546875 1.2802734375 0.57275390625 Q 1.2744140625 0.5947265625 1.259033203125 0.615966796875 Q 1.24365234375 0.63720703125 1.24365234375 0.66796875 Q 1.2509765625 0.6796875 1.265625 0.684814453125 Q 1.2802734375 0.68994140625 1.294921875 0.69287109375 Q 1.3271484375 0.7001953125 1.367431640625 0.7060546875 Q 1.40771484375 0.7119140625 1.44873046875 0.7119140625 Q 1.470703125 0.7119140625 1.49267578125 0.71044921875 Q 1.5146484375 0.708984375 1.5322265625 0.72509765625 Q 1.55859375 0.70751953125 1.572509765625 0.6884765625 Q 1.58642578125 0.66943359375 1.59228515625 0.626953125 Q 1.6083984375 0.615234375 1.616455078125 0.59619140625 Q 1.62451171875 0.5771484375 1.640625 0.5654296875 Q 1.63916015625 0.55810546875 1.6318359375 0.552978515625 Q 1.62451171875 0.5478515625 1.62451171875 0.53759765625 Q 1.623046875 0.53173828125 1.62744140625 0.52734375 Q 1.6318359375 0.52294921875 1.634765625 0.515625 Q 1.6435546875 0.48193359375 1.64501953125 0.450439453125 Q 1.646484375 0.4189453125 1.658203125 0.380859375 Q 1.6845703125 0.35595703125 1.726318359375 0.347900390625 Q 1.76806640625 0.33984375 1.81494140625 0.3544921875 Q 1.83544921875 0.3427734375 1.856689453125 0.327392578125 Q 1.8779296875 0.31201171875 1.89697265625 0.3046875 Q 1.9072265625 0.3076171875 1.91162109375 0.314208984375 Q 1.916015625 0.32080078125 1.921875 0.3251953125 M 2.724609375 0.49365234375 Q 2.7392578125 0.52294921875 2.74658203125 0.5478515625 Q 2.75390625 0.57275390625 2.75830078125 0.615234375 Q 2.76123046875 0.64453125 2.764892578125 0.667236328125 Q 2.7685546875 0.68994140625 2.765625 0.7236328125 Q 2.76416015625 0.7470703125 2.75830078125 0.772705078125 Q 2.75244140625 0.79833984375 2.74365234375 0.8203125 Q 2.73046875 0.85986328125 2.71875 0.88916015625 Q 2.70703125 0.91845703125 2.69091796875 0.9521484375 Q 2.6806640625 0.97119140625 2.67041015625 0.98291015625 Q 2.66015625 0.99462890625 2.6484375 1.0078125 Q 2.6455078125 1.01220703125 2.643310546875 1.01806640625 Q 2.64111328125 1.02392578125 2.63671875 1.0283203125 Q 2.61767578125 1.05029296875 2.584716796875 1.07373046875 Q 2.5517578125 1.09716796875 2.52392578125 1.107421875 Q 2.513671875 1.1103515625 2.502685546875 1.111083984375 Q 2.49169921875 1.11181640625 2.47998046875 1.11474609375 Q 2.46533203125 1.12060546875 2.455078125 1.131591796875 Q 2.44482421875 1.142578125 2.4287109375 1.14697265625 Q 2.419921875 1.14990234375 2.407470703125 1.152099609375 Q 2.39501953125 1.154296875 2.38330078125 1.1572265625 Q 2.35400390625 1.16455078125 2.310791015625 1.171875 Q 2.267578125 1.17919921875 2.23095703125 1.17041015625 Q 2.22509765625 1.1689453125 2.21923828125 1.16455078125 Q 2.21337890625 1.16015625 2.2060546875 1.1572265625 Q 2.19873046875 1.154296875 2.19140625 1.15283203125 Q 2.18408203125 1.1513671875 2.17822265625 1.1484375 Q 2.1591796875 1.14111328125 2.1416015625 1.1279296875 Q 2.1240234375 1.11474609375 2.10498046875 1.107421875 Q 2.08447265625 1.095703125 2.06396484375 1.086181640625 Q 2.04345703125 1.07666015625 2.0361328125 1.0517578125 Q 2.01123046875 1.04443359375 2.0009765625 1.01806640625 Q 1.99072265625 0.99169921875 1.97607421875 0.97119140625 Q 1.9716796875 0.9638671875 1.963623046875 0.958740234375 Q 1.95556640625 0.95361328125 1.95263671875 0.9462890625 Q 1.9423828125 0.93017578125 1.9365234375 0.894287109375 Q 1.9306640625 0.8583984375 1.92919921875 0.83349609375 Q 1.927734375 0.80712890625 1.932861328125 0.782958984375 Q 1.93798828125 0.7587890625 1.944580078125 0.7353515625 Q 1.951171875 0.7119140625 1.959228515625 0.68994140625 Q 1.96728515625 0.66796875 1.97314453125 0.6474609375 Q 1.97900390625 0.62255859375 1.9951171875 0.60791015625 Q 2.01123046875 0.59326171875 2.02587890625 0.57568359375 Q 2.03173828125 0.56982421875 2.03466796875 0.5625 Q 2.03759765625 0.55517578125 2.04345703125 0.5478515625 Q 2.05517578125 0.533203125 2.06982421875 0.522216796875 Q 2.08447265625 0.51123046875 2.09765625 0.49951171875 Q 2.1123046875 0.48779296875 2.12841796875 0.476806640625 Q 2.14453125 0.4658203125 2.15478515625 0.4541015625 Q 2.16650390625 0.43798828125 2.173095703125 0.421875 Q 2.1796875 0.40576171875 2.1943359375 0.39404296875 Q 2.21044921875 0.380859375 2.230224609375 0.375 Q 2.25 0.369140625 2.2763671875 0.36181640625 Q 2.30126953125 0.35595703125 2.325439453125 0.344970703125 Q 2.349609375 0.333984375 2.37744140625 0.3310546875 Q 2.40380859375 0.328125 2.4345703125 0.327392578125 Q 2.46533203125 0.32666015625 2.495361328125 0.32958984375 Q 2.525390625 0.33251953125 2.552490234375 0.33984375 Q 2.57958984375 0.34716796875 2.60009765625 0.3603515625 Q 2.6103515625 0.3662109375 2.621337890625 0.3779296875 Q 2.63232421875 0.3896484375 2.642578125 0.39990234375 Q 2.666015625 0.42333984375 2.682861328125 0.447509765625 Q 2.69970703125 0.4716796875 2.724609375 0.49365234375 M 2.4052734375 0.427734375 Q 2.3994140625 0.427734375 2.388427734375 0.43212890625 Q 2.37744140625 0.4365234375 2.366455078125 0.441650390625 Q 2.35546875 0.44677734375 2.3466796875 0.45263671875 Q 2.337890625 0.45849609375 2.33349609375 0.46142578125 Q 2.31591796875 0.4775390625 2.302001953125 0.501708984375 Q 2.2880859375 0.52587890625 2.2705078125 0.544921875 Q 2.26318359375 0.55224609375 2.255126953125 0.555908203125 Q 2.2470703125 0.5595703125 2.24267578125 0.5654296875 Q 2.2177734375 0.59326171875 2.206787109375 0.6298828125 Q 2.19580078125 0.66650390625 2.18408203125 0.7001953125 Q 2.1708984375 0.7353515625 2.1591796875 0.779296875 Q 2.1474609375 0.8232421875 2.15185546875 0.86279296875 Q 2.1533203125 0.87158203125 2.158447265625 0.885498046875 Q 2.16357421875 0.8994140625 2.16796875 0.9111328125 Q 2.173828125 0.92431640625 2.178955078125 0.936767578125 Q 2.18408203125 0.94921875 2.18994140625 0.95947265625 Q 2.19873046875 0.97705078125 2.212646484375 0.996826171875 Q 2.2265625 1.0166015625 2.244873046875 1.030517578125 Q 2.26318359375 1.04443359375 2.285888671875 1.051025390625 Q 2.30859375 1.0576171875 2.3349609375 1.05029296875 Q 2.35107421875 1.04443359375 2.37451171875 1.031982421875 Q 2.39794921875 1.01953125 2.4169921875 1.0078125 Q 2.44482421875 0.990234375 2.45654296875 0.971923828125 Q 2.46826171875 0.95361328125 2.47998046875 0.92431640625 Q 2.48291015625 0.9169921875 2.488037109375 0.910400390625 Q 2.4931640625 0.90380859375 2.49755859375 0.896484375 Q 2.50634765625 0.88037109375 2.51220703125 0.861328125 Q 2.51806640625 0.84228515625 2.52685546875 0.82470703125 Q 2.54443359375 0.78515625 2.548828125 0.74853515625 Q 2.55322265625 0.7119140625 2.55615234375 0.66064453125 Q 2.5576171875 0.6328125 2.552490234375 0.61962890625 Q 2.54736328125 0.6064453125 2.54443359375 0.5830078125 Q 2.54296875 0.56689453125 2.54296875 0.552978515625 Q 2.54296875 0.5390625 2.537109375 0.52880859375 Q 2.52978515625 0.515625 2.510009765625 0.51123046875 Q 2.490234375 0.5068359375 2.478515625 0.4951171875 Q 2.466796875 0.47607421875 2.45361328125 0.45849609375 Q 2.4404296875 0.44091796875 2.42138671875 0.42919921875 Q 2.4140625 0.4306640625 2.4111328125 0.42919921875 Q 2.408203125 0.427734375 2.4052734375 0.427734375 M 3.087890625 0.908203125 Q 3.0673828125 0.95068359375 3.054931640625 1.00341796875 Q 3.04248046875 1.05615234375 3.03076171875 1.0986328125 Q 3.02490234375 1.119140625 3.008056640625 1.128662109375 Q 2.9912109375 1.13818359375 2.970703125 1.141845703125 Q 2.9501953125 1.1455078125 2.9296875 1.14697265625 Q 2.9091796875 1.1484375 2.89599609375 1.15283203125 Q 2.8828125 1.1572265625 2.867431640625 1.166748046875 Q 2.85205078125 1.17626953125 2.83740234375 1.184326171875 Q 2.82275390625 1.1923828125 2.810302734375 1.19677734375 Q 2.7978515625 1.201171875 2.7919921875 1.1953125 Q 2.7861328125 1.189453125 2.79052734375 1.168212890625 Q 2.794921875 1.14697265625 2.80517578125 1.119140625 Q 2.8154296875 1.09130859375 2.829345703125 1.061279296875 Q 2.84326171875 1.03125 2.8564453125 1.00634765625 Q 2.865234375 0.98876953125 2.8681640625 0.958740234375 Q 2.87109375 0.9287109375 2.87255859375 0.908203125 Q 2.87255859375 0.90087890625 2.86962890625 0.894287109375 Q 2.86669921875 0.8876953125 2.8681640625 0.88037109375 Q 2.86962890625 0.873046875 2.877685546875 0.861328125 Q 2.8857421875 0.849609375 2.8916015625 0.837890625 Q 2.90185546875 0.8115234375 2.904052734375 0.777099609375 Q 2.90625 0.74267578125 2.9150390625 0.71923828125 Q 2.91796875 0.7119140625 2.923095703125 0.705322265625 Q 2.92822265625 0.69873046875 2.93115234375 0.69140625 Q 2.93408203125 0.6826171875 2.9326171875 0.66943359375 Q 2.93115234375 0.65625 2.93115234375 0.64453125 Q 2.93115234375 0.62548828125 2.939208984375 0.601318359375 Q 2.947265625 0.5771484375 2.95458984375 0.554443359375 Q 2.9619140625 0.53173828125 2.965576171875 0.510498046875 Q 2.96923828125 0.4892578125 2.96337890625 0.47314453125 Q 2.958984375 0.451171875 2.958984375 0.44384765625 Q 2.958984375 0.4365234375 2.9560546875 0.43359375 Q 2.94873046875 0.42626953125 2.950927734375 0.424072265625 Q 2.953125 0.421875 2.9443359375 0.416015625 Q 2.93701171875 0.40869140625 2.930419921875 0.403564453125 Q 2.923828125 0.3984375 2.91357421875 0.39111328125 Q 2.90478515625 0.38525390625 2.895263671875 0.380126953125 Q 2.8857421875 0.375 2.88427734375 0.36181640625 Q 2.8974609375 0.35009765625 2.906982421875 0.345703125 Q 2.91650390625 0.34130859375 2.92529296875 0.340576171875 Q 2.93408203125 0.33984375 2.9443359375 0.342041015625 Q 2.95458984375 0.34423828125 2.96923828125 0.345703125 Q 2.994140625 0.3486328125 3.013916015625 0.34716796875 Q 3.03369140625 0.345703125 3.06298828125 0.345703125 Q 3.08203125 0.345703125 3.106201171875 0.349365234375 Q 3.13037109375 0.35302734375 3.1494140625 0.35595703125 Q 3.16845703125 0.35888671875 3.188232421875 0.356689453125 Q 3.2080078125 0.3544921875 3.22412109375 0.357421875 Q 3.2373046875 0.3603515625 3.24755859375 0.364013671875 Q 3.2578125 0.36767578125 3.2724609375 0.36767578125 Q 3.3134765625 0.36767578125 3.350830078125 0.35888671875 Q 3.38818359375 0.35009765625 3.421875 0.35595703125 Q 3.43359375 0.35888671875 3.447509765625 0.36328125 Q 3.46142578125 0.36767578125 3.474609375 0.3720703125 Q 3.48779296875 0.37646484375 3.494384765625 0.378662109375 Q 3.5009765625 0.380859375 3.5126953125 0.38525390625 Q 3.5244140625 0.3896484375 3.536865234375 0.399169921875 Q 3.54931640625 0.40869140625 3.5625 0.42041015625 Q 3.5830078125 0.43505859375 3.604248046875 0.451171875 Q 3.62548828125 0.46728515625 3.6328125 0.49072265625 Q 3.6357421875 0.498046875 3.640869140625 0.51416015625 Q 3.64599609375 0.5302734375 3.64599609375 0.53759765625 Q 3.6474609375 0.556640625 3.6357421875 0.57568359375 Q 3.6474609375 0.59326171875 3.64453125 0.614501953125 Q 3.6416015625 0.6357421875 3.630615234375 0.656982421875 Q 3.61962890625 0.67822265625 3.603515625 0.697265625 Q 3.58740234375 0.71630859375 3.57421875 0.7294921875 Q 3.55224609375 0.75 3.526611328125 0.765380859375 Q 3.5009765625 0.78076171875 3.4716796875 0.79541015625 Q 3.45556640625 0.802734375 3.44091796875 0.813720703125 Q 3.42626953125 0.82470703125 3.4130859375 0.83056640625 Q 3.40576171875 0.83349609375 3.405029296875 0.83203125 Q 3.404296875 0.83056640625 3.3955078125 0.83203125 Q 3.3662109375 0.837890625 3.33837890625 0.8525390625 Q 3.310546875 0.8671875 3.27978515625 0.87451171875 Q 3.2724609375 0.87744140625 3.263671875 0.876708984375 Q 3.2548828125 0.8759765625 3.24755859375 0.87744140625 Q 3.2255859375 0.88037109375 3.204345703125 0.888427734375 Q 3.18310546875 0.896484375 3.1611328125 0.8994140625 Q 3.140625 0.90234375 3.123779296875 0.90234375 Q 3.10693359375 0.90234375 3.087890625 0.908203125 M 3.15966796875 0.58740234375 Q 3.15380859375 0.60791015625 3.150146484375 0.62841796875 Q 3.146484375 0.64892578125 3.14208984375 0.66943359375 Q 3.13916015625 0.6826171875 3.132568359375 0.7001953125 Q 3.1259765625 0.7177734375 3.12158203125 0.734619140625 Q 3.1171875 0.75146484375 3.11865234375 0.7646484375 Q 3.1201171875 0.77783203125 3.13330078125 0.7822265625 Q 3.140625 0.78369140625 3.147216796875 0.78076171875 Q 3.15380859375 0.77783203125 3.16259765625 0.7763671875 Q 3.16845703125 0.7763671875 3.175048828125 0.778564453125 Q 3.181640625 0.78076171875 3.18896484375 0.779296875 Q 3.2431640625 0.77490234375 3.289306640625 0.76025390625 Q 3.33544921875 0.74560546875 3.34716796875 0.7001953125 Q 3.35302734375 0.697265625 3.358154296875 0.695068359375 Q 3.36328125 0.69287109375 3.37060546875 0.68994140625 Q 3.392578125 0.66650390625 3.407958984375 0.62548828125 Q 3.42333984375 0.58447265625 3.42626953125 0.55078125 Q 3.42626953125 0.5390625 3.416748046875 0.525146484375 Q 3.4072265625 0.51123046875 3.404296875 0.50390625 Q 3.4013671875 0.498046875 3.39111328125 0.491455078125 Q 3.380859375 0.48486328125 3.36767578125 0.478271484375 Q 3.3544921875 0.4716796875 3.340576171875 0.46728515625 Q 3.32666015625 0.462890625 3.3193359375 0.46142578125 Q 3.30322265625 0.45849609375 3.29296875 0.462158203125 Q 3.28271484375 0.4658203125 3.26806640625 0.46728515625 Q 3.24755859375 0.46875 3.22998046875 0.46728515625 Q 3.21240234375 0.4658203125 3.19921875 0.47900390625 Q 3.19482421875 0.50537109375 3.180908203125 0.532470703125 Q 3.1669921875 0.5595703125 3.15966796875 0.58740234375 M 3.65478515625 0.9814453125 Q 3.67822265625 0.98583984375 3.699462890625 1.01220703125 Q 3.720703125 1.03857421875 3.71337890625 1.072265625 Q 3.70458984375 1.11328125 3.671630859375 1.138916015625 Q 3.638671875 1.16455078125 3.59765625 1.17333984375 Q 3.57568359375 1.17626953125 3.556640625 1.1630859375 Q 3.53759765625 1.14990234375 3.52734375 1.128662109375 Q 3.51708984375 1.107421875 3.51708984375 1.08251953125 Q 3.51708984375 1.0576171875 3.53173828125 1.03564453125 Q 3.5390625 1.025390625 3.551513671875 1.01953125 Q 3.56396484375 1.013671875 3.57568359375 1.0048828125 Q 3.58447265625 0.99755859375 3.59619140625 0.988037109375 Q 3.60791015625 0.978515625 3.62255859375 0.97705078125 Q 3.6298828125 0.97705078125 3.638671875 0.978515625 Q 3.6474609375 0.97998046875 3.65478515625 0.9814453125 M 4.73291015625 0.36474609375 Q 4.73583984375 0.380859375 4.726318359375 0.391845703125 Q 4.716796875 0.40283203125 4.7021484375 0.40576171875 Q 4.705078125 0.416015625 4.71240234375 0.418212890625 Q 4.7197265625 0.42041015625 4.72265625 0.427734375 Q 4.7109375 0.451171875 4.683837890625 0.462158203125 Q 4.65673828125 0.47314453125 4.62744140625 0.48046875 Q 4.60986328125 0.4833984375 4.590087890625 0.4833984375 Q 4.5703125 0.4833984375 4.552734375 0.48046875 Q 4.52783203125 0.47607421875 4.505859375 0.463623046875 Q 4.48388671875 0.451171875 4.46337890625 0.4541015625 Q 4.45751953125 0.45556640625 4.450927734375 0.46142578125 Q 4.4443359375 0.46728515625 4.43701171875 0.47021484375 Q 4.42236328125 0.48046875 4.401123046875 0.487060546875 Q 4.3798828125 0.49365234375 4.3681640625 0.5009765625 Q 4.33447265625 0.52001953125 4.30517578125 0.5478515625 Q 4.27587890625 0.57568359375 4.24365234375 0.59619140625 Q 4.23193359375 0.61962890625 4.220947265625 0.642333984375 Q 4.2099609375 0.6650390625 4.1982421875 0.6943359375 Q 4.1923828125 0.70751953125 4.185791015625 0.721435546875 Q 4.17919921875 0.7353515625 4.17626953125 0.74853515625 Q 4.17333984375 0.76171875 4.171142578125 0.78076171875 Q 4.1689453125 0.7998046875 4.16455078125 0.81591796875 Q 4.16162109375 0.82763671875 4.155029296875 0.83642578125 Q 4.1484375 0.84521484375 4.14990234375 0.8583984375 Q 4.15283203125 0.8701171875 4.162353515625 0.87744140625 Q 4.171875 0.884765625 4.1748046875 0.89501953125 Q 4.177734375 0.90087890625 4.175537109375 0.907470703125 Q 4.17333984375 0.9140625 4.1748046875 0.92138671875 Q 4.1806640625 0.9462890625 4.200439453125 0.966796875 Q 4.22021484375 0.9873046875 4.2333984375 1.00634765625 Q 4.26416015625 1.00927734375 4.288330078125 1.015869140625 Q 4.3125 1.0224609375 4.3388671875 1.02685546875 Q 4.36376953125 1.01513671875 4.389404296875 1.0078125 Q 4.4150390625 1.00048828125 4.4443359375 0.990234375 Q 4.46630859375 0.98291015625 4.487548828125 0.967529296875 Q 4.5087890625 0.9521484375 4.5322265625 0.94921875 Q 4.53662109375 0.94921875 4.54248046875 0.951416015625 Q 4.54833984375 0.95361328125 4.552734375 0.9521484375 Q 4.564453125 0.95068359375 4.5732421875 0.943359375 Q 4.58203125 0.93603515625 4.591552734375 0.929443359375 Q 4.60107421875 0.9228515625 4.612060546875 0.91845703125 Q 4.623046875 0.9140625 4.6376953125 0.9169921875 Q 4.65234375 0.94189453125 4.642822265625 0.95654296875 Q 4.63330078125 0.97119140625 4.61572265625 0.983642578125 Q 4.59814453125 0.99609375 4.581298828125 1.0107421875 Q 4.564453125 1.025390625 4.564453125 1.048828125 Q 4.55126953125 1.0634765625 4.5322265625 1.07958984375 Q 4.51318359375 1.095703125 4.48828125 1.10595703125 Q 4.47802734375 1.10888671875 4.467041015625 1.111083984375 Q 4.4560546875 1.11328125 4.447265625 1.1162109375 Q 4.41650390625 1.1279296875 4.39013671875 1.14111328125 Q 4.36376953125 1.154296875 4.32421875 1.15283203125 Q 4.30078125 1.15283203125 4.28173828125 1.1484375 Q 4.265625 1.1455078125 4.251708984375 1.13818359375 Q 4.23779296875 1.130859375 4.2216796875 1.1279296875 Q 4.201171875 1.125 4.1806640625 1.1279296875 Q 4.16015625 1.130859375 4.142578125 1.1279296875 Q 4.125 1.125 4.10595703125 1.114013671875 Q 4.0869140625 1.10302734375 4.0693359375 1.09130859375 Q 4.05029296875 1.0810546875 4.033447265625 1.071533203125 Q 4.0166015625 1.06201171875 4.00048828125 1.05322265625 Q 3.9814453125 1.0400390625 3.968994140625 1.020263671875 Q 3.95654296875 1.00048828125 3.93896484375 0.984375 Q 3.931640625 0.955078125 3.93310546875 0.926513671875 Q 3.9345703125 0.89794921875 3.93310546875 0.86865234375 Q 3.931640625 0.84228515625 3.923583984375 0.814453125 Q 3.91552734375 0.78662109375 3.91845703125 0.7646484375 Q 3.92138671875 0.75439453125 3.92578125 0.74267578125 Q 3.93017578125 0.73095703125 3.931640625 0.7177734375 Q 3.9345703125 0.697265625 3.938232421875 0.680419921875 Q 3.94189453125 0.66357421875 3.95068359375 0.6474609375 Q 3.95654296875 0.63720703125 3.964599609375 0.62841796875 Q 3.97265625 0.61962890625 3.980712890625 0.61083984375 Q 3.98876953125 0.60205078125 3.99462890625 0.591796875 Q 4.00048828125 0.58154296875 4.001953125 0.5654296875 Q 4.0107421875 0.5537109375 4.023193359375 0.5478515625 Q 4.03564453125 0.5419921875 4.04296875 0.5302734375 Q 4.04736328125 0.52294921875 4.04736328125 0.515625 Q 4.04736328125 0.50830078125 4.05322265625 0.5009765625 Q 4.060546875 0.4921875 4.0751953125 0.48193359375 Q 4.08984375 0.4716796875 4.10009765625 0.46435546875 Q 4.12939453125 0.4482421875 4.16162109375 0.434326171875 Q 4.19384765625 0.42041015625 4.2216796875 0.39990234375 Q 4.2392578125 0.39990234375 4.256103515625 0.394775390625 Q 4.27294921875 0.3896484375 4.288330078125 0.383056640625 Q 4.3037109375 0.37646484375 4.31982421875 0.369873046875 Q 4.3359375 0.36328125 4.353515625 0.3603515625 Q 4.36962890625 0.35888671875 4.388671875 0.359619140625 Q 4.40771484375 0.3603515625 4.42529296875 0.35888671875 Q 4.45166015625 0.357421875 4.478759765625 0.356689453125 Q 4.505859375 0.35595703125 4.52783203125 0.35888671875 Q 4.5380859375 0.3603515625 4.54833984375 0.365478515625 Q 4.55859375 0.37060546875 4.5703125 0.37060546875 Q 4.58056640625 0.37060546875 4.591552734375 0.3662109375 Q 4.6025390625 0.36181640625 4.61279296875 0.3603515625 Q 4.64208984375 0.357421875 4.6728515625 0.359619140625 Q 4.70361328125 0.36181640625 4.73291015625 0.36474609375 M 5.5224609375 0.49365234375 Q 5.537109375 0.52294921875 5.54443359375 0.5478515625 Q 5.5517578125 0.57275390625 5.55615234375 0.615234375 Q 5.55908203125 0.64453125 5.562744140625 0.667236328125 Q 5.56640625 0.68994140625 5.5634765625 0.7236328125 Q 5.56201171875 0.7470703125 5.55615234375 0.772705078125 Q 5.55029296875 0.79833984375 5.54150390625 0.8203125 Q 5.5283203125 0.85986328125 5.5166015625 0.88916015625 Q 5.5048828125 0.91845703125 5.48876953125 0.9521484375 Q 5.478515625 0.97119140625 5.46826171875 0.98291015625 Q 5.4580078125 0.99462890625 5.4462890625 1.0078125 Q 5.443359375 1.01220703125 5.441162109375 1.01806640625 Q 5.43896484375 1.02392578125 5.4345703125 1.0283203125 Q 5.41552734375 1.05029296875 5.382568359375 1.07373046875 Q 5.349609375 1.09716796875 5.32177734375 1.107421875 Q 5.3115234375 1.1103515625 5.300537109375 1.111083984375 Q 5.28955078125 1.11181640625 5.27783203125 1.11474609375 Q 5.26318359375 1.12060546875 5.2529296875 1.131591796875 Q 5.24267578125 1.142578125 5.2265625 1.14697265625 Q 5.2177734375 1.14990234375 5.205322265625 1.152099609375 Q 5.19287109375 1.154296875 5.18115234375 1.1572265625 Q 5.15185546875 1.16455078125 5.108642578125 1.171875 Q 5.0654296875 1.17919921875 5.02880859375 1.17041015625 Q 5.02294921875 1.1689453125 5.01708984375 1.16455078125 Q 5.01123046875 1.16015625 5.00390625 1.1572265625 Q 4.99658203125 1.154296875 4.9892578125 1.15283203125 Q 4.98193359375 1.1513671875 4.97607421875 1.1484375 Q 4.95703125 1.14111328125 4.939453125 1.1279296875 Q 4.921875 1.11474609375 4.90283203125 1.107421875 Q 4.88232421875 1.095703125 4.86181640625 1.086181640625 Q 4.84130859375 1.07666015625 4.833984375 1.0517578125 Q 4.80908203125 1.04443359375 4.798828125 1.01806640625 Q 4.78857421875 0.99169921875 4.77392578125 0.97119140625 Q 4.76953125 0.9638671875 4.761474609375 0.958740234375 Q 4.75341796875 0.95361328125 4.75048828125 0.9462890625 Q 4.740234375 0.93017578125 4.734375 0.894287109375 Q 4.728515625 0.8583984375 4.72705078125 0.83349609375 Q 4.7255859375 0.80712890625 4.730712890625 0.782958984375 Q 4.73583984375 0.7587890625 4.742431640625 0.7353515625 Q 4.7490234375 0.7119140625 4.757080078125 0.68994140625 Q 4.76513671875 0.66796875 4.77099609375 0.6474609375 Q 4.77685546875 0.62255859375 4.79296875 0.60791015625 Q 4.80908203125 0.59326171875 4.82373046875 0.57568359375 Q 4.82958984375 0.56982421875 4.83251953125 0.5625 Q 4.83544921875 0.55517578125 4.84130859375 0.5478515625 Q 4.85302734375 0.533203125 4.86767578125 0.522216796875 Q 4.88232421875 0.51123046875 4.8955078125 0.49951171875 Q 4.91015625 0.48779296875 4.92626953125 0.476806640625 Q 4.9423828125 0.4658203125 4.95263671875 0.4541015625 Q 4.96435546875 0.43798828125 4.970947265625 0.421875 Q 4.9775390625 0.40576171875 4.9921875 0.39404296875 Q 5.00830078125 0.380859375 5.028076171875 0.375 Q 5.0478515625 0.369140625 5.07421875 0.36181640625 Q 5.09912109375 0.35595703125 5.123291015625 0.344970703125 Q 5.1474609375 0.333984375 5.17529296875 0.3310546875 Q 5.20166015625 0.328125 5.232421875 0.327392578125 Q 5.26318359375 0.32666015625 5.293212890625 0.32958984375 Q 5.3232421875 0.33251953125 5.350341796875 0.33984375 Q 5.37744140625 0.34716796875 5.39794921875 0.3603515625 Q 5.408203125 0.3662109375 5.419189453125 0.3779296875 Q 5.43017578125 0.3896484375 5.4404296875 0.39990234375 Q 5.4638671875 0.42333984375 5.480712890625 0.447509765625 Q 5.49755859375 0.4716796875 5.5224609375 0.49365234375 M 5.203125 0.427734375 Q 5.197265625 0.427734375 5.186279296875 0.43212890625 Q 5.17529296875 0.4365234375 5.164306640625 0.441650390625 Q 5.1533203125 0.44677734375 5.14453125 0.45263671875 Q 5.1357421875 0.45849609375 5.13134765625 0.46142578125 Q 5.11376953125 0.4775390625 5.099853515625 0.501708984375 Q 5.0859375 0.52587890625 5.068359375 0.544921875 Q 5.06103515625 0.55224609375 5.052978515625 0.555908203125 Q 5.044921875 0.5595703125 5.04052734375 0.5654296875 Q 5.015625 0.59326171875 5.004638671875 0.6298828125 Q 4.99365234375 0.66650390625 4.98193359375 0.7001953125 Q 4.96875 0.7353515625 4.95703125 0.779296875 Q 4.9453125 0.8232421875 4.94970703125 0.86279296875 Q 4.951171875 0.87158203125 4.956298828125 0.885498046875 Q 4.96142578125 0.8994140625 4.9658203125 0.9111328125 Q 4.9716796875 0.92431640625 4.976806640625 0.936767578125 Q 4.98193359375 0.94921875 4.98779296875 0.95947265625 Q 4.99658203125 0.97705078125 5.010498046875 0.996826171875 Q 5.0244140625 1.0166015625 5.042724609375 1.030517578125 Q 5.06103515625 1.04443359375 5.083740234375 1.051025390625 Q 5.1064453125 1.0576171875 5.1328125 1.05029296875 Q 5.14892578125 1.04443359375 5.17236328125 1.031982421875 Q 5.19580078125 1.01953125 5.21484375 1.0078125 Q 5.24267578125 0.990234375 5.25439453125 0.971923828125 Q 5.26611328125 0.95361328125 5.27783203125 0.92431640625 Q 5.28076171875 0.9169921875 5.285888671875 0.910400390625 Q 5.291015625 0.90380859375 5.29541015625 0.896484375 Q 5.30419921875 0.88037109375 5.31005859375 0.861328125 Q 5.31591796875 0.84228515625 5.32470703125 0.82470703125 Q 5.34228515625 0.78515625 5.3466796875 0.74853515625 Q 5.35107421875 0.7119140625 5.35400390625 0.66064453125 Q 5.35546875 0.6328125 5.350341796875 0.61962890625 Q 5.34521484375 0.6064453125 5.34228515625 0.5830078125 Q 5.3408203125 0.56689453125 5.3408203125 0.552978515625 Q 5.3408203125 0.5390625 5.3349609375 0.52880859375 Q 5.32763671875 0.515625 5.307861328125 0.51123046875 Q 5.2880859375 0.5068359375 5.2763671875 0.4951171875 Q 5.2646484375 0.47607421875 5.25146484375 0.45849609375 Q 5.23828125 0.44091796875 5.21923828125 0.42919921875 Q 5.2119140625 0.4306640625 5.208984375 0.42919921875 Q 5.2060546875 0.427734375 5.203125 0.427734375" fill="#00394f" fill-rule="nonzero"></path></g><g></g></g><defs><clipPath id="SvgjsClipPath100646"><path d=" M 5.99423828125 -0.6214295502473541 h 1.6423612589301655 v 2.3751833192447083 h -1.6423612589301655 Z"></path></clipPath><clipPath id="SvgjsClipPath10064464affbc6-c705-4d92-b49a-f25c7a37d819"><path d=" M 5.99423828125 -0.6214295502473541 L 7.636599540180166 -0.6214295502473541 L 7.636599540180166 1.7537537689973541 L 5.99423828125 1.7537537689973541 Z"></path></clipPath></defs></svg>